<?xml version="1.0" encoding="UTF-8"?>
<svg width="100" height="100" viewBox="0 0 100 100" xmlns="http://www.w3.org/2000/svg">
  <!-- Background Circle -->
  <circle cx="50" cy="50" r="48" fill="#1a1a1a" stroke="#5865F2" stroke-width="4"/>
  
  <!-- Target/Crosshair -->
  <circle cx="50" cy="50" r="20" fill="none" stroke="#5865F2" stroke-width="2"/>
  <line x1="50" y1="10" x2="50" y2="30" stroke="#5865F2" stroke-width="2"/>
  <line x1="50" y1="70" x2="50" y2="90" stroke="#5865F2" stroke-width="2"/>
  <line x1="10" y1="50" x2="30" y2="50" stroke="#5865F2" stroke-width="2"/>
  <line x1="70" y1="50" x2="90" y2="50" stroke="#5865F2" stroke-width="2"/>
  
  <!-- People Silhouettes -->
  <g transform="translate(28, 40) scale(0.6)">
    <!-- Person 1 -->
    <circle cx="20" cy="15" r="7" fill="#5865F2"/>
    <path d="M10,60 L30,60 L30,40 C30,35 25,30 20,30 C15,30 10,35 10,40 Z" fill="#5865F2"/>
    
    <!-- Person 2 -->
    <circle cx="48" cy="15" r="7" fill="#5865F2"/>
    <path d="M38,60 L58,60 L58,40 C58,35 53,30 48,30 C43,30 38,35 38,40 Z" fill="#5865F2"/>
    
    <!-- Person 3 -->
    <circle cx="76" cy="15" r="7" fill="#5865F2"/>
    <path d="M66,60 L86,60 L86,40 C86,35 81,30 76,30 C71,30 66,35 66,40 Z" fill="#5865F2"/>
  </g>
</svg>